%TF.GenerationSoftware,KiCad,Pcbnew,10.0.0*%
%TF.CreationDate,2026-08-26T04:03:24+03:00*%
%TF.ProjectId,PL1,504c312e-6b69-4636-9164-5f7063625858,rev?*%
%TF.SameCoordinates,Original*%
%TF.FileFunction,Legend,Top*%
%TF.FilePolarity,Positive*%
%FSLAX46Y46*%
G04 Gerber Fmt 4.6, Leading zero omitted, Abs format (unit mm)*
G04 Created by KiCad (PCBNEW 10.0.0) date 2026-08-26 04:03:24*
%MOMM*%
%LPD*%
G01*
G04 APERTURE LIST*
%ADD10C,0.120000*%
G04 APERTURE END LIST*
%TO.C,U6*%
D10*
X120790000Y-66040000D02*
X122610000Y-66040000D01*
X120790000Y-66090000D02*
X120790000Y-66040000D01*
X120790000Y-69160000D02*
X120790000Y-69110000D01*
X122610000Y-66040000D02*
X122610000Y-66090000D01*
X122610000Y-67210000D02*
X122610000Y-67990000D01*
X122610000Y-69110000D02*
X122610000Y-69160000D01*
X122610000Y-69160000D02*
X120790000Y-69160000D01*
X120250000Y-66090000D02*
X120010000Y-65760000D01*
X120490000Y-65760000D01*
X120250000Y-66090000D01*
G36*
X120250000Y-66090000D02*
G01*
X120010000Y-65760000D01*
X120490000Y-65760000D01*
X120250000Y-66090000D01*
G37*
%TO.C,U5*%
X120790000Y-69440000D02*
X122610000Y-69440000D01*
X120790000Y-69490000D02*
X120790000Y-69440000D01*
X120790000Y-72560000D02*
X120790000Y-72510000D01*
X122610000Y-69440000D02*
X122610000Y-69490000D01*
X122610000Y-72510000D02*
X122610000Y-72560000D01*
X122610000Y-72560000D02*
X120790000Y-72560000D01*
X120250000Y-69490000D02*
X120010000Y-69160000D01*
X120490000Y-69160000D01*
X120250000Y-69490000D01*
G36*
X120250000Y-69490000D02*
G01*
X120010000Y-69160000D01*
X120490000Y-69160000D01*
X120250000Y-69490000D01*
G37*
%TO.C,J1*%
X112840045Y-65328726D02*
X114540045Y-65328726D01*
X112840045Y-74668726D02*
X114540045Y-74668726D01*
%TD*%
M02*
