M48
; DRILL file KiCad 10.0.0 date 2026-08-27T09:39:49
; FORMAT={-:-/ absolute / metric / decimal}
; #@! TF.CreationDate,2026-08-27T09:39:49+03:00
; #@! TF.GenerationSoftware,Kicad,Pcbnew,10.0.0
; #@! TF.FileFunction,Plated,1,4,PTH
FMAT,2
METRIC
; #@! TA.AperFunction,Plated,PTH,ViaDrill
T1C0.300
; #@! TA.AperFunction,Plated,PTH,ComponentDrill
T2C0.600
%
G90
G05
T1
X1.5Y7.2
X1.5Y5.2
X1.5Y3.2
X3.925Y8.4
X4.1Y3.85
X4.4Y1.9
X4.6Y3.0
X4.925Y5.024
X4.925Y4.35
X5.2Y6.7
X7.725Y6.475
X7.8Y7.9
X7.9Y9.0
X7.925Y0.45
X8.025Y5.85
X8.15Y2.3
X8.35Y3.3
X8.7Y1.1
T2
G00X2.065Y9.521
M15
G01X1.265Y9.521
M16
G05
G00X2.065Y0.881
M15
G01X1.265Y0.881
M16
G05
G00X6.395Y9.521
M15
G01X5.295Y9.521
M16
G05
G00X6.395Y0.881
M15
G01X5.295Y0.881
M16
G05
M30
