%TF.GenerationSoftware,KiCad,Pcbnew,10.0.0*%
%TF.CreationDate,2026-08-26T04:03:24+03:00*%
%TF.ProjectId,PL1,504c312e-6b69-4636-9164-5f7063625858,rev?*%
%TF.SameCoordinates,Original*%
%TF.FileFunction,Copper,L2,Inr*%
%TF.FilePolarity,Positive*%
%FSLAX46Y46*%
G04 Gerber Fmt 4.6, Leading zero omitted, Abs format (unit mm)*
G04 Created by KiCad (PCBNEW 10.0.0) date 2026-08-26 04:03:24*
%MOMM*%
%LPD*%
G01*
G04 APERTURE LIST*
%TA.AperFunction,HeatsinkPad*%
%ADD10O,2.100000X1.000000*%
%TD*%
%TA.AperFunction,HeatsinkPad*%
%ADD11O,1.800000X1.000000*%
%TD*%
%TA.AperFunction,ViaPad*%
%ADD12C,0.500000*%
%TD*%
G04 APERTURE END LIST*
D10*
%TO.N,GND*%
%TO.C,J1*%
X115845045Y-65678726D03*
D11*
X111665045Y-65678726D03*
D10*
X115845045Y-74318726D03*
D11*
X111665045Y-74318726D03*
%TD*%
D12*
%TO.N,GND*%
X118700000Y-74100000D03*
X117900000Y-66200000D03*
X113925000Y-66800000D03*
X111500000Y-70000000D03*
X114100000Y-71350000D03*
X111500000Y-68000000D03*
X114400000Y-73300000D03*
X111500000Y-72000000D03*
X118350000Y-71900000D03*
%TO.N,VDD*%
X117925000Y-74750000D03*
%TO.N,Net-(U4-V_{CC})*%
X117800000Y-67300000D03*
X118150000Y-72900000D03*
%TO.N,Net-(J1-CC1)*%
X115200000Y-68500000D03*
%TO.N,/D-*%
X117725000Y-68725000D03*
X114925000Y-70176274D03*
%TO.N,/D+*%
X114925000Y-70850000D03*
X118025000Y-69350000D03*
%TO.N,Net-(J1-CC2)*%
X114600000Y-72200000D03*
%TD*%
%TA.AperFunction,Conductor*%
%TO.N,GND*%
G36*
X110900064Y-66609939D02*
G01*
X110973354Y-66640296D01*
X110973363Y-66640299D01*
X111166549Y-66678725D01*
X111166553Y-66678726D01*
X111415045Y-66678726D01*
X111434073Y-66659697D01*
X111434730Y-66657461D01*
X111446565Y-66647205D01*
X111451364Y-66642407D01*
X111451707Y-66642750D01*
X111487534Y-66611706D01*
X111539045Y-66600500D01*
X111791045Y-66600500D01*
X111858084Y-66620185D01*
X111877983Y-66643149D01*
X111878726Y-66642407D01*
X111915045Y-66678726D01*
X112163537Y-66678726D01*
X112163540Y-66678725D01*
X112356726Y-66640299D01*
X112356735Y-66640296D01*
X112430026Y-66609939D01*
X112477478Y-66600500D01*
X114759165Y-66600500D01*
X114826204Y-66620185D01*
X114871959Y-66672989D01*
X114881903Y-66742147D01*
X114866553Y-66786497D01*
X114843536Y-66826364D01*
X114808764Y-66886589D01*
X114769545Y-67032960D01*
X114769545Y-67184491D01*
X114808764Y-67330862D01*
X114846647Y-67396476D01*
X114884530Y-67462091D01*
X114991680Y-67569241D01*
X115122910Y-67645007D01*
X115269279Y-67684226D01*
X115269281Y-67684226D01*
X115420809Y-67684226D01*
X115420811Y-67684226D01*
X115567180Y-67645007D01*
X115698410Y-67569241D01*
X115805560Y-67462091D01*
X115881326Y-67330861D01*
X115905487Y-67240691D01*
X117349500Y-67240691D01*
X117349500Y-67359309D01*
X117380201Y-67473886D01*
X117439511Y-67576613D01*
X117523387Y-67660489D01*
X117626114Y-67719799D01*
X117740691Y-67750500D01*
X117740694Y-67750500D01*
X117859306Y-67750500D01*
X117859309Y-67750500D01*
X117973886Y-67719799D01*
X118076613Y-67660489D01*
X118160489Y-67576613D01*
X118219799Y-67473886D01*
X118250500Y-67359309D01*
X118250500Y-67240691D01*
X118219799Y-67126114D01*
X118160489Y-67023387D01*
X118076613Y-66939511D01*
X117973886Y-66880201D01*
X117859309Y-66849500D01*
X117740691Y-66849500D01*
X117626114Y-66880201D01*
X117626112Y-66880201D01*
X117626112Y-66880202D01*
X117523387Y-66939511D01*
X117523384Y-66939513D01*
X117439513Y-67023384D01*
X117439511Y-67023387D01*
X117380201Y-67126114D01*
X117349500Y-67240691D01*
X115905487Y-67240691D01*
X115920545Y-67184492D01*
X115920545Y-67032960D01*
X115881326Y-66886591D01*
X115823537Y-66786498D01*
X115807065Y-66718601D01*
X115829917Y-66652574D01*
X115884838Y-66609383D01*
X115930925Y-66600500D01*
X115971045Y-66600500D01*
X116038084Y-66620185D01*
X116057983Y-66643149D01*
X116058726Y-66642407D01*
X116095045Y-66678726D01*
X116493537Y-66678726D01*
X116493540Y-66678725D01*
X116686726Y-66640299D01*
X116686735Y-66640296D01*
X116760026Y-66609939D01*
X116807478Y-66600500D01*
X120775500Y-66600500D01*
X120842539Y-66620185D01*
X120888294Y-66672989D01*
X120899500Y-66724500D01*
X120899500Y-74575500D01*
X120879815Y-74642539D01*
X120827011Y-74688294D01*
X120775500Y-74699500D01*
X118473008Y-74699500D01*
X118405969Y-74679815D01*
X118360214Y-74627011D01*
X118353235Y-74607598D01*
X118344799Y-74576114D01*
X118285489Y-74473387D01*
X118201613Y-74389511D01*
X118098886Y-74330201D01*
X117984309Y-74299500D01*
X117865691Y-74299500D01*
X117751114Y-74330201D01*
X117751112Y-74330201D01*
X117751112Y-74330202D01*
X117648387Y-74389511D01*
X117648384Y-74389513D01*
X117564513Y-74473384D01*
X117564509Y-74473390D01*
X117539347Y-74516971D01*
X117488780Y-74565185D01*
X117420172Y-74578407D01*
X117395990Y-74568726D01*
X116562033Y-74568726D01*
X116579250Y-74558786D01*
X116635105Y-74502931D01*
X116674601Y-74434522D01*
X116695045Y-74358222D01*
X116695045Y-74279230D01*
X116674601Y-74202930D01*
X116635105Y-74134521D01*
X116579250Y-74078666D01*
X116562033Y-74068726D01*
X117364907Y-74068726D01*
X117356614Y-74027035D01*
X117356614Y-74027033D01*
X117281237Y-73845054D01*
X117281230Y-73845041D01*
X117171796Y-73681263D01*
X117171793Y-73681259D01*
X117032511Y-73541977D01*
X117032507Y-73541974D01*
X116868729Y-73432540D01*
X116868716Y-73432533D01*
X116686738Y-73357156D01*
X116686726Y-73357153D01*
X116493540Y-73318726D01*
X116095045Y-73318726D01*
X116095045Y-74018726D01*
X115595045Y-74018726D01*
X115595045Y-73480510D01*
X115614730Y-73413471D01*
X115657045Y-73373123D01*
X115698410Y-73349241D01*
X115805560Y-73242091D01*
X115806417Y-73240605D01*
X115826766Y-73205363D01*
X115881324Y-73110864D01*
X115881326Y-73110861D01*
X115920545Y-72964492D01*
X115920545Y-72840691D01*
X117699500Y-72840691D01*
X117699500Y-72959309D01*
X117730201Y-73073886D01*
X117789511Y-73176613D01*
X117873387Y-73260489D01*
X117976114Y-73319799D01*
X118090691Y-73350500D01*
X118090694Y-73350500D01*
X118209306Y-73350500D01*
X118209309Y-73350500D01*
X118323886Y-73319799D01*
X118426613Y-73260489D01*
X118510489Y-73176613D01*
X118569799Y-73073886D01*
X118600500Y-72959309D01*
X118600500Y-72840691D01*
X118569799Y-72726114D01*
X118510489Y-72623387D01*
X118426613Y-72539511D01*
X118323886Y-72480201D01*
X118209309Y-72449500D01*
X118090691Y-72449500D01*
X117976114Y-72480201D01*
X117976112Y-72480201D01*
X117976112Y-72480202D01*
X117873387Y-72539511D01*
X117873384Y-72539513D01*
X117789513Y-72623384D01*
X117789511Y-72623387D01*
X117730201Y-72726114D01*
X117699500Y-72840691D01*
X115920545Y-72840691D01*
X115920545Y-72812960D01*
X115881326Y-72666591D01*
X115805560Y-72535361D01*
X115698410Y-72428211D01*
X115632795Y-72390328D01*
X115567181Y-72352445D01*
X115477289Y-72328359D01*
X115420811Y-72313226D01*
X115269279Y-72313226D01*
X115269277Y-72313226D01*
X115206592Y-72330022D01*
X115136742Y-72328359D01*
X115078880Y-72289195D01*
X115051377Y-72224966D01*
X115050500Y-72210247D01*
X115050500Y-72140693D01*
X115050500Y-72140691D01*
X115019799Y-72026114D01*
X114960489Y-71923387D01*
X114876613Y-71839511D01*
X114773886Y-71780201D01*
X114659309Y-71749500D01*
X114540691Y-71749500D01*
X114426114Y-71780201D01*
X114426112Y-71780201D01*
X114426112Y-71780202D01*
X114323387Y-71839511D01*
X114323384Y-71839513D01*
X114239513Y-71923384D01*
X114239511Y-71923387D01*
X114180201Y-72026114D01*
X114149500Y-72140691D01*
X114149500Y-72259309D01*
X114180201Y-72373886D01*
X114239511Y-72476613D01*
X114323387Y-72560489D01*
X114426114Y-72619799D01*
X114540691Y-72650500D01*
X114540694Y-72650500D01*
X114651476Y-72650500D01*
X114718515Y-72670185D01*
X114764270Y-72722989D01*
X114774214Y-72792147D01*
X114771252Y-72806590D01*
X114769545Y-72812960D01*
X114769545Y-72964491D01*
X114808764Y-73110862D01*
X114846726Y-73176613D01*
X114884530Y-73242091D01*
X114884531Y-73242092D01*
X114888594Y-73249129D01*
X114886391Y-73250400D01*
X114907004Y-73303709D01*
X114892968Y-73372154D01*
X114844157Y-73422146D01*
X114830890Y-73428592D01*
X114821369Y-73432535D01*
X114821360Y-73432540D01*
X114657582Y-73541974D01*
X114657578Y-73541977D01*
X114518296Y-73681259D01*
X114518293Y-73681263D01*
X114408859Y-73845041D01*
X114408852Y-73845054D01*
X114333475Y-74027033D01*
X114333475Y-74027035D01*
X114325183Y-74068726D01*
X115128057Y-74068726D01*
X115110840Y-74078666D01*
X115054985Y-74134521D01*
X115015489Y-74202930D01*
X114995045Y-74279230D01*
X114995045Y-74358222D01*
X115015489Y-74434522D01*
X115054985Y-74502931D01*
X115110840Y-74558786D01*
X115128057Y-74568726D01*
X114325181Y-74568726D01*
X114319544Y-74575594D01*
X114315489Y-74620901D01*
X114272626Y-74676078D01*
X114206736Y-74699322D01*
X114200100Y-74699500D01*
X113159990Y-74699500D01*
X113092951Y-74679815D01*
X113047196Y-74627011D01*
X113039645Y-74574497D01*
X113034909Y-74568726D01*
X112232033Y-74568726D01*
X112249250Y-74558786D01*
X112305105Y-74502931D01*
X112344601Y-74434522D01*
X112365045Y-74358222D01*
X112365045Y-74279230D01*
X112344601Y-74202930D01*
X112305105Y-74134521D01*
X112249250Y-74078666D01*
X112232033Y-74068726D01*
X113034907Y-74068726D01*
X113026614Y-74027035D01*
X113026614Y-74027033D01*
X112951237Y-73845054D01*
X112951230Y-73845041D01*
X112841796Y-73681263D01*
X112841793Y-73681259D01*
X112702511Y-73541977D01*
X112702507Y-73541974D01*
X112538729Y-73432540D01*
X112538716Y-73432533D01*
X112356738Y-73357156D01*
X112356726Y-73357153D01*
X112163540Y-73318726D01*
X111915045Y-73318726D01*
X111915045Y-74018726D01*
X111415045Y-74018726D01*
X111415045Y-73318726D01*
X111166549Y-73318726D01*
X110973363Y-73357153D01*
X110973351Y-73357156D01*
X110791373Y-73432533D01*
X110791360Y-73432540D01*
X110693391Y-73498002D01*
X110626713Y-73518880D01*
X110559333Y-73500395D01*
X110512643Y-73448417D01*
X110500500Y-73394900D01*
X110500500Y-70116965D01*
X114474500Y-70116965D01*
X114474500Y-70235583D01*
X114505201Y-70350160D01*
X114505202Y-70350163D01*
X114563500Y-70451137D01*
X114579973Y-70519037D01*
X114563500Y-70575137D01*
X114505202Y-70676110D01*
X114505201Y-70676114D01*
X114474500Y-70790691D01*
X114474500Y-70909309D01*
X114505201Y-71023886D01*
X114564511Y-71126613D01*
X114648387Y-71210489D01*
X114751114Y-71269799D01*
X114865691Y-71300500D01*
X114865694Y-71300500D01*
X114984306Y-71300500D01*
X114984309Y-71300500D01*
X115098886Y-71269799D01*
X115201613Y-71210489D01*
X115285489Y-71126613D01*
X115344799Y-71023886D01*
X115375500Y-70909309D01*
X115375500Y-70790691D01*
X115344799Y-70676114D01*
X115344797Y-70676110D01*
X115344797Y-70676109D01*
X115344796Y-70676108D01*
X115286500Y-70575138D01*
X115270026Y-70507238D01*
X115286500Y-70451136D01*
X115344796Y-70350165D01*
X115344797Y-70350164D01*
X115344797Y-70350162D01*
X115344799Y-70350160D01*
X115375500Y-70235583D01*
X115375500Y-70116965D01*
X115344799Y-70002388D01*
X115285489Y-69899661D01*
X115201613Y-69815785D01*
X115098886Y-69756475D01*
X114984309Y-69725774D01*
X114865691Y-69725774D01*
X114751114Y-69756475D01*
X114751112Y-69756475D01*
X114751112Y-69756476D01*
X114648387Y-69815785D01*
X114648384Y-69815787D01*
X114564513Y-69899658D01*
X114564511Y-69899661D01*
X114505201Y-70002388D01*
X114474500Y-70116965D01*
X110500500Y-70116965D01*
X110500500Y-68440691D01*
X114749500Y-68440691D01*
X114749500Y-68559309D01*
X114780201Y-68673886D01*
X114839511Y-68776613D01*
X114923387Y-68860489D01*
X115026114Y-68919799D01*
X115140691Y-68950500D01*
X115140694Y-68950500D01*
X115259306Y-68950500D01*
X115259309Y-68950500D01*
X115373886Y-68919799D01*
X115476613Y-68860489D01*
X115560489Y-68776613D01*
X115619799Y-68673886D01*
X115621995Y-68665691D01*
X117274500Y-68665691D01*
X117274500Y-68784309D01*
X117305201Y-68898886D01*
X117364511Y-69001613D01*
X117448387Y-69085489D01*
X117522820Y-69128463D01*
X117571036Y-69179030D01*
X117584259Y-69247637D01*
X117580595Y-69267941D01*
X117574500Y-69290686D01*
X117574500Y-69290691D01*
X117574500Y-69409309D01*
X117605201Y-69523886D01*
X117664511Y-69626613D01*
X117748387Y-69710489D01*
X117851114Y-69769799D01*
X117965691Y-69800500D01*
X117965694Y-69800500D01*
X118084306Y-69800500D01*
X118084309Y-69800500D01*
X118198886Y-69769799D01*
X118301613Y-69710489D01*
X118385489Y-69626613D01*
X118444799Y-69523886D01*
X118475500Y-69409309D01*
X118475500Y-69290691D01*
X118444799Y-69176114D01*
X118385489Y-69073387D01*
X118301613Y-68989511D01*
X118227177Y-68946534D01*
X118178963Y-68895969D01*
X118165741Y-68827361D01*
X118169403Y-68807061D01*
X118175500Y-68784309D01*
X118175500Y-68665691D01*
X118144799Y-68551114D01*
X118085489Y-68448387D01*
X118001613Y-68364511D01*
X117898886Y-68305201D01*
X117784309Y-68274500D01*
X117665691Y-68274500D01*
X117551114Y-68305201D01*
X117551112Y-68305201D01*
X117551112Y-68305202D01*
X117448387Y-68364511D01*
X117448384Y-68364513D01*
X117364513Y-68448384D01*
X117364511Y-68448387D01*
X117305201Y-68551114D01*
X117274500Y-68665691D01*
X115621995Y-68665691D01*
X115650500Y-68559309D01*
X115650500Y-68440691D01*
X115619799Y-68326114D01*
X115560489Y-68223387D01*
X115476613Y-68139511D01*
X115373886Y-68080201D01*
X115259309Y-68049500D01*
X115140691Y-68049500D01*
X115026114Y-68080201D01*
X115026112Y-68080201D01*
X115026112Y-68080202D01*
X114923387Y-68139511D01*
X114923384Y-68139513D01*
X114839513Y-68223384D01*
X114839511Y-68223387D01*
X114780201Y-68326114D01*
X114749500Y-68440691D01*
X110500500Y-68440691D01*
X110500500Y-66724500D01*
X110520185Y-66657461D01*
X110572989Y-66611706D01*
X110624500Y-66600500D01*
X110852612Y-66600500D01*
X110900064Y-66609939D01*
G37*
%TD.AperFunction*%
%TD*%
M02*
