%TF.GenerationSoftware,KiCad,Pcbnew,10.0.0*%
%TF.CreationDate,2026-08-26T23:21:06+03:00*%
%TF.ProjectId,inductance,696e6475-6374-4616-9e63-652e6b696361,rev?*%
%TF.SameCoordinates,PX42c1d80PY55d4a80*%
%TF.FileFunction,Legend,Top*%
%TF.FilePolarity,Positive*%
%FSLAX46Y46*%
G04 Gerber Fmt 4.6, Leading zero omitted, Abs format (unit mm)*
G04 Created by KiCad (PCBNEW 10.0.0) date 2026-08-26 23:21:06*
%MOMM*%
%LPD*%
G01*
G04 APERTURE LIST*
%ADD10C,0.150000*%
G04 APERTURE END LIST*
D10*
X17466666Y9545181D02*
X17133333Y10021372D01*
X16895238Y9545181D02*
X16895238Y10545181D01*
X16895238Y10545181D02*
X17276190Y10545181D01*
X17276190Y10545181D02*
X17371428Y10497562D01*
X17371428Y10497562D02*
X17419047Y10449943D01*
X17419047Y10449943D02*
X17466666Y10354705D01*
X17466666Y10354705D02*
X17466666Y10211848D01*
X17466666Y10211848D02*
X17419047Y10116610D01*
X17419047Y10116610D02*
X17371428Y10068991D01*
X17371428Y10068991D02*
X17276190Y10021372D01*
X17276190Y10021372D02*
X16895238Y10021372D01*
X17895238Y10068991D02*
X18228571Y10068991D01*
X18371428Y9545181D02*
X17895238Y9545181D01*
X17895238Y9545181D02*
X17895238Y10545181D01*
X17895238Y10545181D02*
X18371428Y10545181D01*
X19133333Y10068991D02*
X18800000Y10068991D01*
X18800000Y9545181D02*
X18800000Y10545181D01*
X18800000Y10545181D02*
X19276190Y10545181D01*
X19800000Y10545181D02*
X19800000Y10307086D01*
X19561905Y10402324D02*
X19800000Y10307086D01*
X19800000Y10307086D02*
X20038095Y10402324D01*
X19657143Y10116610D02*
X19800000Y10307086D01*
X19800000Y10307086D02*
X19942857Y10116610D01*
X20561905Y10545181D02*
X20561905Y10307086D01*
X20323810Y10402324D02*
X20561905Y10307086D01*
X20561905Y10307086D02*
X20800000Y10402324D01*
X20419048Y10116610D02*
X20561905Y10307086D01*
X20561905Y10307086D02*
X20704762Y10116610D01*
M02*
