%TF.GenerationSoftware,KiCad,Pcbnew,10.0.0*%
%TF.CreationDate,2026-08-26T23:21:06+03:00*%
%TF.ProjectId,inductance,696e6475-6374-4616-9e63-652e6b696361,rev?*%
%TF.SameCoordinates,PX42c1d80PY55d4a80*%
%TF.FileFunction,Copper,L1,Top*%
%TF.FilePolarity,Positive*%
%FSLAX46Y46*%
G04 Gerber Fmt 4.6, Leading zero omitted, Abs format (unit mm)*
G04 Created by KiCad (PCBNEW 10.0.0) date 2026-08-26 23:21:06*
%MOMM*%
%LPD*%
G01*
G04 APERTURE LIST*
G04 Aperture macros list*
%AMRoundRect*
0 Rectangle with rounded corners*
0 $1 Rounding radius*
0 $2 $3 $4 $5 $6 $7 $8 $9 X,Y pos of 4 corners*
0 Add a 4 corners polygon primitive as box body*
4,1,4,$2,$3,$4,$5,$6,$7,$8,$9,$2,$3,0*
0 Add four circle primitives for the rounded corners*
1,1,$1+$1,$2,$3*
1,1,$1+$1,$4,$5*
1,1,$1+$1,$6,$7*
1,1,$1+$1,$8,$9*
0 Add four rect primitives between the rounded corners*
20,1,$1+$1,$2,$3,$4,$5,0*
20,1,$1+$1,$4,$5,$6,$7,0*
20,1,$1+$1,$6,$7,$8,$9,0*
20,1,$1+$1,$8,$9,$2,$3,0*%
G04 Aperture macros list end*
%TA.AperFunction,Conductor*%
%ADD10C,0.200000*%
%TD*%
%TA.AperFunction,EtchedComponent*%
%ADD11C,0.300000*%
%TD*%
%TA.AperFunction,ComponentPad*%
%ADD12C,0.600000*%
%TD*%
%TA.AperFunction,SMDPad,CuDef*%
%ADD13RoundRect,0.075000X-1.125000X-0.075000X1.125000X-0.075000X1.125000X0.075000X-1.125000X0.075000X0*%
%TD*%
G04 APERTURE END LIST*
%TO.N,2*%
D10*
X2000000Y11000000D02*
X4000000Y11000000D01*
X4000000Y9000000D01*
X2000000Y9000000D01*
X2000000Y11000000D01*
%TA.AperFunction,Conductor*%
G36*
X2000000Y11000000D02*
G01*
X4000000Y11000000D01*
X4000000Y9000000D01*
X2000000Y9000000D01*
X2000000Y11000000D01*
G37*
%TD.AperFunction*%
%TO.N,1*%
X36000000Y11000000D02*
X38000000Y11000000D01*
X38000000Y9000000D01*
X36000000Y9000000D01*
X36000000Y11000000D01*
%TA.AperFunction,Conductor*%
G36*
X36000000Y11000000D02*
G01*
X38000000Y11000000D01*
X38000000Y9000000D01*
X36000000Y9000000D01*
X36000000Y11000000D01*
G37*
%TD.AperFunction*%
%TD*%
%TO.C,REF\u002A\u002A*%
D11*
X21900000Y10000000D02*
X20500000Y10000000D01*
%TO.C,REF\u002A\u002A*%
X24300000Y10000000D02*
X24300000Y11100000D01*
X24300000Y11100000D02*
X25100000Y11100000D01*
X15700000Y10000000D02*
G75*
G02*
X21900000Y10000000I3100000J0D01*
G01*
X22700000Y10000000D02*
G75*
G02*
X15700000Y10000000I-3500000J0D01*
G01*
X14900000Y10000000D02*
G75*
G02*
X22700000Y10000000I3900000J0D01*
G01*
X23500000Y10000000D02*
G75*
G02*
X14900000Y10000000I-4300000J0D01*
G01*
X14100000Y10000000D02*
G75*
G02*
X23500000Y10000000I4700000J0D01*
G01*
X24300000Y10000000D02*
G75*
G02*
X14100000Y10000000I-5100000J0D01*
G01*
%TD*%
D12*
%TO.P,REF\u002A\u002A,2*%
%TO.N,2*%
X20500000Y10000000D03*
D13*
%TO.P,REF\u002A\u002A,1*%
%TO.N,1*%
X26000000Y11100000D03*
%TD*%
D12*
%TO.P,,2*%
%TO.N,2*%
X11500000Y10000000D03*
%TD*%
%TO.N,1*%
D10*
X31500000Y10000000D02*
X37000000Y10000000D01*
X30400000Y11100000D02*
X31500000Y10000000D01*
X26400000Y11100000D02*
X30400000Y11100000D01*
%TO.N,2*%
X11500000Y10000000D02*
X3000000Y10000000D01*
%TD*%
M02*
