%TF.GenerationSoftware,KiCad,Pcbnew,10.0.0*%
%TF.CreationDate,2026-08-26T23:21:06+03:00*%
%TF.ProjectId,inductance,696e6475-6374-4616-9e63-652e6b696361,rev?*%
%TF.SameCoordinates,PX42c1d80PY55d4a80*%
%TF.FileFunction,Copper,L2,Bot*%
%TF.FilePolarity,Positive*%
%FSLAX46Y46*%
G04 Gerber Fmt 4.6, Leading zero omitted, Abs format (unit mm)*
G04 Created by KiCad (PCBNEW 10.0.0) date 2026-08-26 23:21:06*
%MOMM*%
%LPD*%
G01*
G04 APERTURE LIST*
%TA.AperFunction,ComponentPad*%
%ADD10C,0.600000*%
%TD*%
%TA.AperFunction,Conductor*%
%ADD11C,0.200000*%
%TD*%
G04 APERTURE END LIST*
D10*
%TO.P,REF\u002A\u002A,2*%
%TO.N,2*%
X20500000Y10000000D03*
%TD*%
%TO.P,,2*%
%TO.N,2*%
X11500000Y10000000D03*
%TD*%
%TO.N,2*%
D11*
X11500000Y10000000D02*
X20650000Y10000000D01*
%TD*%
%TA.AperFunction,Conductor*%
%TO.N,3*%
G36*
X39442539Y19479815D02*
G01*
X39488294Y19427011D01*
X39499500Y19375500D01*
X39499500Y624500D01*
X39479815Y557461D01*
X39427011Y511706D01*
X39375500Y500500D01*
X624500Y500500D01*
X557461Y520185D01*
X511706Y572989D01*
X500500Y624500D01*
X500500Y10078847D01*
X10699500Y10078847D01*
X10699500Y9921154D01*
X10730261Y9766511D01*
X10730264Y9766499D01*
X10790602Y9620828D01*
X10790609Y9620815D01*
X10878210Y9489712D01*
X10878213Y9489708D01*
X10989707Y9378214D01*
X10989711Y9378211D01*
X11120814Y9290610D01*
X11120827Y9290603D01*
X11266498Y9230265D01*
X11266503Y9230263D01*
X11421153Y9199501D01*
X11421156Y9199500D01*
X11421158Y9199500D01*
X11578844Y9199500D01*
X11578845Y9199501D01*
X11733497Y9230263D01*
X11879179Y9290606D01*
X11879185Y9290610D01*
X12010875Y9378602D01*
X12077553Y9399480D01*
X12079766Y9399500D01*
X19920234Y9399500D01*
X19987273Y9379815D01*
X19989125Y9378602D01*
X20120814Y9290610D01*
X20120827Y9290603D01*
X20266498Y9230265D01*
X20266503Y9230263D01*
X20421153Y9199501D01*
X20421156Y9199500D01*
X20421158Y9199500D01*
X20578844Y9199500D01*
X20578845Y9199501D01*
X20733497Y9230263D01*
X20879179Y9290606D01*
X21010289Y9378211D01*
X21121789Y9489711D01*
X21209394Y9620821D01*
X21269737Y9766503D01*
X21300500Y9921158D01*
X21300500Y10078842D01*
X21300500Y10078845D01*
X21300499Y10078847D01*
X21269738Y10233490D01*
X21269737Y10233497D01*
X21269735Y10233502D01*
X21209397Y10379173D01*
X21209390Y10379186D01*
X21121789Y10510289D01*
X21121786Y10510293D01*
X21010292Y10621787D01*
X21010288Y10621790D01*
X20879185Y10709391D01*
X20879172Y10709398D01*
X20733501Y10769736D01*
X20733489Y10769739D01*
X20578845Y10800500D01*
X20578842Y10800500D01*
X20421158Y10800500D01*
X20421155Y10800500D01*
X20266510Y10769739D01*
X20266498Y10769736D01*
X20120827Y10709398D01*
X20120814Y10709391D01*
X19989125Y10621398D01*
X19922447Y10600520D01*
X19920234Y10600500D01*
X12079766Y10600500D01*
X12012727Y10620185D01*
X12010875Y10621398D01*
X11879185Y10709391D01*
X11879172Y10709398D01*
X11733501Y10769736D01*
X11733489Y10769739D01*
X11578845Y10800500D01*
X11578842Y10800500D01*
X11421158Y10800500D01*
X11421155Y10800500D01*
X11266510Y10769739D01*
X11266498Y10769736D01*
X11120827Y10709398D01*
X11120814Y10709391D01*
X10989711Y10621790D01*
X10989707Y10621787D01*
X10878213Y10510293D01*
X10878210Y10510289D01*
X10790609Y10379186D01*
X10790602Y10379173D01*
X10730264Y10233502D01*
X10730261Y10233490D01*
X10699500Y10078847D01*
X500500Y10078847D01*
X500500Y19375500D01*
X520185Y19442539D01*
X572989Y19488294D01*
X624500Y19499500D01*
X39375500Y19499500D01*
X39442539Y19479815D01*
G37*
%TD.AperFunction*%
%TD*%
M02*
